<svg xmlns="http://www.w3.org/2000/svg" version="1.1" xmlns:xlink="http://www.w3.org/1999/xlink" xmlns:svgjs="http://svgjs.dev/svgjs" width="1500" height="500" viewBox="0 0 1500 378"><g transform="matrix(1,0,0,1,-0.9090909090909918,-0.7237906630050475)"><svg viewBox="0 0 396 100" data-background-color="#ffffff" preserveAspectRatio="xMidYMid meet" height="378" width="1500" xmlns="http://www.w3.org/2000/svg" xmlns:xlink="http://www.w3.org/1999/xlink"><g id="tight-bounds" transform="matrix(1,0,0,1,0.2400000000000091,0.1914790113769982)"><svg viewBox="0 0 395.52 99.61704197724598" height="99.61704197724598" width="395.52"><g><svg viewBox="0 0 395.52 99.61704197724598" height="99.61704197724598" width="395.52"><g><svg viewBox="0 0 395.52 99.61704197724598" height="99.61704197724598" width="395.52"><g id="textblocktransform"><svg viewBox="0 0 395.52 99.61704197724598" height="99.61704197724598" width="395.52" id="textblock"><g><svg viewBox="0 0 395.52 99.61704197724598" height="99.61704197724598" width="395.52"><g transform="matrix(1,0,0,1,0,0)"><svg width="395.52" viewBox="1.51 -36.33 186.68 47.019999999999996" height="99.61704197724598" data-palette-color="#067627"><g class="wordmark-text-0" data-fill-palette-color="primary" id="text-0"><path d="M14.92-5.37L14.92-5.37Q18.07-5.37 19.24-7.01L19.24-7.01 19.43-7.01 19.51-1.34Q18.31-0.15 15.06 0.24L15.06 0.24Q14.18 0.37 12.88 0.37 11.57 0.37 10.05-0.12 8.52-0.61 7.45-1.71L7.45-1.71Q5.22-3.98 5.22-8.81L5.22-8.81 5.22-19.9 1.54-19.9Q1.51-20.61 1.51-21.34L1.51-21.34 1.51-25.1Q1.51-25.51 1.54-25.51L1.54-25.51 5.22-25.51 5.22-32.47 11.21-32.47 11.21-25.51 17.92-25.51 17.92-19.9 11.21-19.9 11.21-9.94Q11.21-6.1 13.33-5.57L13.33-5.57Q14.01-5.37 14.92-5.37ZM23.24-12.55L23.24-12.55Q23.24-15.41 24.22-17.85 25.19-20.29 26.98-22.12L26.98-22.12Q30.78-26 36.94-26L36.94-26Q42.14-26 45.29-22.56L45.29-22.56Q48.39-19.24 48.39-14.21L48.39-14.21Q48.39-12.28 48.09-11.57L48.09-11.57Q45.65-10.89 38.16-10.89L38.16-10.89 29.56-10.89Q30.2-8.28 32.52-6.82 34.84-5.37 38.55-5.37L38.55-5.37Q42.43-5.37 45.21-6.76L45.21-6.76Q45.94-7.13 46.31-7.45L46.31-7.45Q46.26-6.42 46.19-5.35L46.19-5.35 45.92-1.54Q44.06-0.27 39.91 0.22L39.91 0.22Q38.69 0.37 37.57 0.37L37.57 0.37Q31.37 0.37 27.32-3.25L27.32-3.25Q23.24-6.88 23.24-12.55ZM41.89-15.63L41.89-15.63Q40.89-20.87 36.18-20.87L36.18-20.87Q32.47-20.87 30.54-17.68L30.54-17.68Q29.95-16.7 29.64-15.53L29.64-15.53Q30.22-15.5 31.08-15.48L31.08-15.48 32.88-15.48Q33.79-15.45 34.62-15.45L34.62-15.45 36.01-15.45Q37.25-15.45 38.45-15.48L38.45-15.48 40.45-15.55Q41.26-15.58 41.89-15.63ZM73.07-8.33L73.63-2.37Q70.89 0.37 65.06 0.37L65.06 0.37Q59.39 0.37 55.81-3.08L55.81-3.08Q52.17-6.57 52.17-12.35L52.17-12.35Q52.17-18.24 55.76-22.02L55.76-22.02Q59.57-26 65.94-26L65.94-26Q70.45-26 73.51-24.02L73.51-24.02 72.53-17.77 72.36-17.8Q71.19-19.21 69.89-19.65L69.89-19.65Q67.79-20.39 65.69-20.39 63.59-20.39 62.4-19.85 61.2-19.31 60.35-18.36L60.35-18.36Q58.64-16.41 58.64-13.18L58.64-13.18Q58.64-7.47 62.59-5.71L62.59-5.71Q63.96-5.13 65.49-5.13 67.01-5.13 68.15-5.4 69.28-5.66 70.21-6.13L70.21-6.13Q72.19-7.1 72.9-8.4L72.9-8.4 73.07-8.33ZM85.34-16.97L85.34-2.73Q85.34-0.63 85.44 0L85.44 0 79.36 0 79.36-34.91 85.34-34.91 85.34-23.61Q88.49-26 91.84-26L91.84-26Q95.94-26 98.43-23.29L98.43-23.29Q100.87-20.58 100.87-16.11L100.87-16.11 100.87-6.4Q100.87-2.27 100.99-1.44 101.12-0.61 101.32-0.37 101.53-0.12 101.68 0.07L101.68 0.07 101.63 0.17Q99.65 0 98.75 0L98.75 0 97.01 0Q96.21 0 94.89 0.07L94.89 0.07 94.89-14.06Q94.89-17.43 93.4-19.04L93.4-19.04Q92.28-20.26 90.35-20.26L90.35-20.26Q87.49-20.26 85.34-16.97L85.34-16.97ZM113.95-36.33L113.95-24.58Q116.69-26 119.55-26 122.4-26 124.47-25.11 126.53-24.22 128.09-22.56L128.09-22.56Q131.48-18.87 131.48-13.23L131.48-13.23Q131.48-7.06 127.8-3.27L127.8-3.27Q124.26 0.37 118.98 0.37L118.98 0.37Q114.35 0.37 111.34-2.05L111.34-2.05Q107.97-4.79 107.97-9.59L107.97-9.59 107.97-36.33 113.95-36.33ZM113.95-18.41L113.95-9.67Q113.95-5.37 119.3-5.37L119.3-5.37Q121.91-5.37 123.7-7.67L123.7-7.67Q125.5-10.01 125.5-13.5L125.5-13.5Q125.5-17.02 123.6-18.8L123.6-18.8Q121.89-20.39 119.01-20.39L119.01-20.39Q117.28-20.39 115.18-19.21L115.18-19.21Q114.52-18.85 113.95-18.41L113.95-18.41ZM152.11 0L152.11-2.22Q148.99 0.37 145.3 0.37L145.3 0.37Q141.34 0.37 139.1-2.29L139.1-2.29Q136.95-4.88 136.95-9.4L136.95-9.4 136.95-19.09Q136.95-23.97 136.74-24.69 136.54-25.42 136.44-25.61L136.44-25.61Q137.56-25.51 138.78-25.51L138.78-25.51 140.81-25.51Q141.61-25.51 142.93-25.59L142.93-25.59 142.93-11.45Q142.93-6.42 145.67-5.62L145.67-5.62Q146.5-5.37 147.47-5.37L147.47-5.37Q150.35-5.37 152.11-7.47L152.11-7.47 152.11-25.51 158.17-25.51 158.17-3.13Q158.17-0.98 158.36 0L158.36 0 152.11 0ZM169.91 10.69L163.61 8.5 165.22 7.2Q168.86 4.25 171.25-1.51L171.25-1.51 172.37-4.22 163.02-25.51 169.86-25.51 175.72-10.77 181.16-25.51 188.19-25.51Q186.92-23.75 185.09-18.97L185.09-18.97 181.43-9.91Q174.08 7.37 169.91 10.69L169.91 10.69Z" fill="#067627" data-fill-palette-color="primary"></path></g></svg></g></svg></g></svg></g></svg></g></svg></g><defs></defs></svg><rect width="395.52" height="99.61704197724598" fill="none" stroke="none" visibility="hidden"></rect></g></svg></g></svg>